<svg version="1.1" id="Layer_1" xmlns="http://www.w3.org/2000/svg" xmlns:xlink="http://www.w3.org/1999/xlink" x="0px" y="0px"
	 width="100%" viewBox="0 0 224 224" enable-background="new 0 0 224 224" xml:space="preserve">
<path fill="#000000" opacity="1.000000" stroke="none" 
	d="
M80.293167,21.098988 
	C84.756325,20.974510 87.890793,23.106253 91.058685,25.609665 
	C92.656006,22.511887 92.598648,18.194729 97.388260,17.704262 
	C102.467056,17.184177 105.629974,20.117207 108.113823,23.756456 
	C116.599190,36.188862 119.640823,50.046387 118.273819,64.948479 
	C118.179031,65.981857 117.888115,66.927628 116.522682,67.220467 
	C113.928551,66.395996 114.842850,64.030647 114.654617,62.248322 
	C113.426529,50.619888 112.229622,38.964653 105.368523,28.956429 
	C103.509026,26.243992 101.782860,21.435371 97.933899,23.037428 
	C94.643196,24.407127 96.465851,28.990618 96.763977,32.212132 
	C97.205986,36.988426 99.848724,40.957596 101.716553,45.202023 
	C104.076569,50.564907 106.114784,56.037029 106.286743,61.942268 
	C106.351608,64.169647 107.897507,65.461342 108.637115,67.187988 
	C107.607841,69.415314 105.760864,69.544411 103.954765,69.023125 
	C101.918999,68.435562 102.189102,66.435547 102.019188,64.832436 
	C100.522728,50.714203 93.789307,39.010986 85.148125,28.188892 
	C83.972923,26.717077 82.463928,25.248360 80.527214,25.953270 
	C78.605499,26.652721 79.163345,28.741064 79.178970,30.367491 
	C79.262154,39.026840 84.691574,45.944649 86.925674,53.926529 
	C88.307961,58.865070 90.610649,63.561649 92.687660,68.284386 
	C93.996391,71.260193 93.300560,72.586845 90.023781,72.905640 
	C63.712940,75.465401 43.422878,112.089714 60.391884,138.347580 
	C62.638447,141.823898 65.258362,145.545273 68.976219,147.225830 
	C74.284126,149.625137 73.472763,152.022980 70.818390,155.900375 
	C68.356499,159.496613 68.512932,163.501678 71.571602,166.954224 
	C72.317360,167.796005 73.358482,168.479080 74.395622,168.935684 
	C75.962570,169.625565 77.461266,169.139008 78.242477,167.631287 
	C79.070183,166.033875 77.829063,165.227173 76.588913,164.561768 
	C75.883354,164.183182 75.191757,163.778580 74.345398,163.302109 
	C75.165581,160.829910 76.918015,160.591522 78.728935,161.165237 
	C81.228004,161.956970 83.226082,163.586594 83.623039,166.321381 
	C83.960915,168.649292 82.804367,170.505936 80.815224,171.782013 
	C75.994537,174.874603 68.511490,172.188187 65.549179,166.578979 
	C62.931789,161.622894 64.091820,156.942963 66.195824,152.180283 
	C51.435371,139.012527 44.758339,123.069458 50.545395,103.744896 
	C56.026421,85.442230 67.518425,72.671890 87.950378,69.182739 
	C84.843262,60.935646 82.084129,53.342468 79.119347,45.830456 
	C76.855133,40.093494 74.268677,34.483730 74.663353,28.084301 
	C74.879280,24.583422 76.150398,21.961048 80.293167,21.098988 
z"/>
<path fill="#000000" opacity="1.000000" stroke="none" 
	d="
M157.693848,158.039978 
	C162.109711,156.860001 162.460938,157.365997 162.039886,163.812042 
	C167.196869,161.717255 167.531799,159.945511 164.728867,149.587387 
	C168.658966,148.901016 172.007736,152.008331 171.998505,156.332825 
	C171.986343,162.030746 168.610519,166.736740 163.042587,168.064133 
	C160.816452,168.594833 159.519897,169.555008 158.691483,171.563324 
	C155.331406,179.709106 150.398056,186.372253 141.572510,189.202866 
	C139.276154,189.939377 139.421677,191.707550 139.201721,193.577362 
	C138.528534,199.300140 135.717957,201.707062 130.171783,200.885971 
	C127.790932,200.533493 126.009644,201.363663 123.991234,202.071548 
	C118.868629,203.868164 115.607056,202.644760 113.406425,197.715378 
	C112.405289,195.472839 111.138313,194.417480 108.775627,193.895584 
	C99.601791,191.869125 91.731087,187.387131 85.382767,180.452896 
	C83.671562,178.583771 81.858910,178.166122 79.599266,178.596771 
	C78.023880,178.897034 76.436531,179.876724 74.387123,178.047089 
	C76.120651,174.328827 80.520721,175.090744 83.233467,173.220505 
	C84.953201,172.034882 86.358551,174.032806 87.689964,175.390381 
	C97.167419,185.054214 107.605995,192.561493 122.276199,189.916916 
	C124.777863,189.465958 126.271179,190.625244 127.501747,192.759598 
	C128.764969,194.950623 130.287109,198.393326 133.389084,195.900375 
	C136.413620,193.469650 133.522751,191.270538 131.717712,189.339905 
	C131.299866,188.892929 131.108429,188.234268 130.531479,187.138916 
	C149.142563,186.308502 154.827850,173.679794 157.693848,158.039978 
M120.243294,194.514435 
	C118.230026,194.836563 117.585869,195.896042 118.857391,197.578888 
	C119.788841,198.811661 121.257713,199.056641 122.315445,197.884735 
	C124.109970,195.896469 122.677361,195.023102 120.243294,194.514435 
z"/>
<path fill="#000000" opacity="1.000000" stroke="none" 
	d="
M146.158066,69.669296 
	C170.741287,80.286392 178.002106,103.106110 172.834900,128.466110 
	C172.043228,132.351471 170.654007,136.124680 169.402252,139.903748 
	C168.342270,143.103867 166.111176,145.137177 162.523407,146.078812 
	C176.089767,105.898491 169.173660,76.583794 122.151505,68.412674 
	C121.983398,65.288048 124.180046,65.709106 125.901901,65.638695 
	C132.838181,65.355026 139.461304,66.728889 146.158066,69.669296 
z"/>
<path fill="#000000" opacity="1.000000" stroke="none" 
	d="
M151.920990,99.161240 
	C151.816086,101.402229 151.542816,103.191551 148.367584,104.129349 
	C145.510544,88.014099 135.133255,80.857552 118.493042,82.098572 
	C120.347229,77.889992 123.066475,77.778778 125.621719,77.743988 
	C136.151855,77.600578 148.649658,82.902435 151.920990,99.161240 
z"/>
<path fill="#000000" opacity="1.000000" stroke="none" 
	d="
M94.274750,105.258591 
	C98.543213,105.779175 103.019554,105.542671 103.253090,111.264977 
	C103.433350,115.681831 101.007210,118.679985 96.828468,119.285034 
	C91.877563,120.001884 88.268303,118.106606 87.293053,114.277817 
	C86.326355,110.482597 88.618813,107.368782 94.274750,105.258591 
z"/>
<path fill="#000000" opacity="1.000000" stroke="none" 
	d="
M136.460739,104.512047 
	C139.330276,108.282936 139.557327,111.867752 136.393127,115.006683 
	C134.068359,117.312866 128.335922,116.508911 126.023132,113.745316 
	C123.610359,110.862267 122.535385,107.641708 125.165215,104.307030 
	C127.707680,101.083138 131.391830,101.131920 136.460739,104.512047 
z"/>
<path fill="#000000" opacity="1.000000" stroke="none" 
	d="
M123.228394,130.297424 
	C121.985565,132.584457 120.408104,133.730911 118.167877,132.850174 
	C115.624954,131.850388 118.825218,129.958557 117.652367,128.546219 
	C115.371902,128.327377 113.332451,130.174988 110.951775,129.469696 
	C108.957710,128.878922 107.210876,128.043564 106.646545,125.821831 
	C106.427368,124.958961 106.624397,124.104668 107.442154,123.661469 
	C109.325661,122.640648 110.508865,124.139793 111.883835,124.981224 
	C112.274353,125.220215 112.794525,125.247322 113.241005,125.367760 
	C116.495972,118.701965 116.495972,118.701965 121.183304,124.367073 
	C123.278976,124.606148 124.329445,120.081902 126.467041,122.544952 
	C128.752029,125.177841 125.589836,126.841202 124.095406,128.653488 
	C123.785324,129.029526 123.602524,129.510513 123.228394,130.297424 
z"/>
<path fill="#000000" opacity="1.000000" stroke="none" 
	d="
M71.695137,99.041542 
	C73.820656,91.582405 78.283745,86.458794 84.610474,82.884460 
	C87.008240,81.529831 89.446693,81.001915 91.715584,82.775703 
	C91.717262,84.755844 90.537788,84.939674 89.443062,85.375847 
	C81.929825,88.369377 77.620033,94.144135 75.453934,101.724869 
	C74.952660,103.479187 75.692558,106.640808 72.840729,106.124413 
	C69.542900,105.527245 70.896957,102.603775 71.425797,100.408318 
	C71.503365,100.086281 71.565826,99.760612 71.695137,99.041542 
z"/>
<path fill="#000000" opacity="1.000000" stroke="none" 
	d="
M75.991791,185.747849 
	C77.537636,184.976562 78.842720,184.400055 79.745796,185.940079 
	C80.356895,186.982224 79.621109,187.897781 78.866928,188.501297 
	C77.261955,189.785629 76.760979,192.410431 74.164085,192.463669 
	C73.251938,192.482361 72.489418,191.921890 72.385941,191.057205 
	C72.080696,188.506348 74.153572,187.380707 75.991791,185.747849 
z"/>
<path fill="#000000" opacity="1.000000" stroke="none" 
	d="
M75.246780,125.048615 
	C75.185448,127.109520 75.322212,128.836319 73.324524,129.926208 
	C70.197632,128.572266 70.976547,125.780746 71.184166,123.294922 
	C71.268990,122.279320 72.043350,121.375641 73.153618,121.390205 
	C75.335922,121.418831 75.087044,123.195480 75.246780,125.048615 
z"/>
<path fill="#000000" opacity="1.000000" stroke="none" 
	d="
M77.045685,125.647278 
	C77.125809,123.472351 77.068024,121.511993 79.333916,120.965668 
	C80.738899,120.626923 81.488037,121.587097 81.699638,122.819496 
	C81.980865,124.457466 81.985359,126.204857 80.530617,127.310143 
	C78.922974,128.531616 77.841232,127.575340 77.045685,125.647278 
z"/>
<path fill="#000000" opacity="1.000000" stroke="none" 
	d="
M84.249535,197.347733 
	C83.592155,199.178467 82.796600,200.708679 80.994225,199.776581 
	C78.941284,198.714905 79.601425,196.655991 80.071693,194.956955 
	C80.490509,193.443817 81.535065,192.109802 83.293297,192.731003 
	C85.492783,193.508133 84.489449,195.418655 84.249535,197.347733 
z"/>
<path fill="#000000" opacity="1.000000" stroke="none" 
	d="
M144.170807,113.824112 
	C146.546143,115.522903 146.665634,119.686371 144.566589,120.790985 
	C142.830734,121.704475 141.710312,120.833908 141.583252,118.969742 
	C141.444550,116.934776 141.920944,115.070854 144.170807,113.824112 
z"/>
<path fill="#000000" opacity="1.000000" stroke="none" 
	d="
M148.077118,116.588974 
	C149.020889,114.852119 149.653244,112.972801 151.801208,113.896866 
	C153.099289,114.455315 152.779160,115.809113 152.519180,116.939522 
	C152.196487,118.342720 152.160278,120.137512 150.136978,120.073212 
	C148.255966,120.013428 147.769211,118.633720 148.077118,116.588974 
z"/>
<path fill="#000000" opacity="1.000000" stroke="none" 
	d="
M156.911057,112.923157 
	C159.876770,114.706306 159.014969,116.607201 157.390488,118.349243 
	C156.585205,119.212776 155.350540,118.956100 154.824142,117.993561 
	C153.622986,115.797066 153.692963,113.827972 156.911057,112.923157 
z"/>
<path fill="#000000" opacity="1.000000" stroke="none" 
	d="
M86.462204,126.904160 
	C83.678665,127.546402 83.426926,125.640388 83.253021,124.039261 
	C83.075180,122.401901 83.828880,120.951889 85.720345,121.007416 
	C87.424454,121.057465 87.831635,122.484520 87.661789,123.907219 
	C87.547424,124.865234 87.066277,125.779472 86.462204,126.904160 
z"/>
</svg>